<?xml version="1.0" standalone="no"?>
<!DOCTYPE svg PUBLIC "-//W3C//DTD SVG 20010904//EN"
 "http://www.w3.org/TR/2001/REC-SVG-20010904/DTD/svg10.dtd">
<svg version="1.0" xmlns="http://www.w3.org/2000/svg"
 width="500.000000pt" height="500.000000pt" viewBox="0 0 500.000000 500.000000"
 preserveAspectRatio="xMidYMid meet">

<g transform="translate(0.000000,500.000000) scale(0.100000,-0.100000)"
fill="#00BFFF" stroke="none">
<path d="M2210 4954 c-829 -97 -1561 -614 -1926 -1359 -114 -235 -190 -477
-231 -745 -22 -144 -25 -517 -5 -660 136 -971 760 -1729 1675 -2034 714 -239
1514 -133 2138 283 336 224 564 462 762 795 388 654 454 1471 176 2169 -285
714 -855 1241 -1579 1460 -317 96 -686 129 -1010 91z m620 -149 c780 -120
1418 -582 1755 -1270 168 -343 239 -651 239 -1035 0 -386 -71 -694 -239 -1035
-213 -433 -501 -737 -945 -998 -286 -167 -687 -281 -1040 -294 -1035 -39
-1967 591 -2297 1552 -219 637 -161 1332 160 1910 359 647 1017 1086 1767
1180 145 18 454 13 600 -10z"/>
<path d="M3330 2672 l0 -809 59 -16 c117 -33 237 -48 371 -48 222 -1 341 41
460 161 71 71 116 152 146 261 26 92 26 336 0 439 -54 216 -172 342 -346 369
-134 21 -259 -19 -359 -114 -32 -30 -60 -55 -62 -55 -2 0 -3 139 -1 310 l3
310 -135 0 -136 0 0 -808z m651 95 c80 -54 113 -147 113 -327 1 -102 -3 -138
-22 -197 -27 -87 -71 -147 -137 -188 -47 -29 -52 -30 -164 -29 -64 0 -128 6
-143 12 l-28 12 0 259 0 259 39 49 c52 64 129 137 166 156 47 25 135 22 176
-6z"/>
<path d="M842 3027 c-45 -45 -82 -85 -82 -89 0 -4 128 -113 285 -244 157 -130
285 -239 284 -243 0 -3 -128 -111 -285 -239 -156 -128 -284 -236 -284 -240 0
-4 38 -45 85 -92 78 -78 86 -83 102 -68 10 8 186 156 391 328 358 301 372 314
355 331 -32 31 -758 639 -763 639 -3 0 -42 -37 -88 -83z"/>
<path d="M2440 3030 c-174 -22 -309 -119 -394 -279 -57 -109 -78 -203 -78
-356 0 -209 43 -335 153 -446 104 -107 233 -151 434 -151 122 0 226 11 348 39
l67 15 0 109 c0 60 -1 109 -3 109 -2 0 -43 -9 -93 -21 -129 -29 -344 -37 -415
-15 -119 38 -197 132 -207 252 l-4 54 389 0 390 0 6 83 c14 205 -30 353 -140
468 -104 109 -277 162 -453 139z m168 -216 c79 -33 131 -109 139 -206 l6 -58
-252 0 -253 0 7 33 c33 163 118 247 253 247 34 0 79 -7 100 -16z"/>
</g>
</svg>
